<svg version="1.2" xmlns="http://www.w3.org/2000/svg" viewBox="0 0 1552 1551" width="1552" height="1551">
	<title>FNMAL_BIG copy-svg-svg</title>
	<style>
		.s0 { fill: #05314d } 
	</style>
	<g id="Clip-Path: Clip-Path: Page 1">
		<g id="Clip-Path: Page 1">
			<g id="Page 1">
				<path id="Path 21" fill-rule="evenodd" class="s0" d="m775.7 1550.9c-428.9 0-775.7-346.6-775.7-775.4 0-428.8 346.8-775.5 775.7-775.5 429 0 775.7 346.7 775.7 775.5 0 428.8-346.7 775.4-775.7 775.4zm713.9-775.4c0-394.4-319-713.2-713.6-713.2-394.7 0-713.7 318.8-713.7 713.2 0 394.3 319 713.1 713.7 713.1 394.6 0 713.6-318.8 713.6-713.1zm-180.2 66.4l-58.7-8.8-212.6-490.1c-106.1 233.2-312.6 413.4-565.9 487 162.2 15 312.5 71.1 442.3 156.6v-141.6l179.7 32.4v274.5q49.9 56.1 85.5 121.5l-38.1 26.2c-150.4-253.8-424.8-422.2-740.5-422.2-73.6 0-150.3 8.8-218.3 26.8 0 0-14.4-79.8-17.5-86l141.6-321.8 144.7-50v-168.3h182.8v106l412.4-144.6zm-347.5 180.2q46.8 38.1 85.4 79.8v-183.3l-85.4-15zm135.4-413.4v177.6l-135.4-23.7v-177.1zm-88.6 114.8l41.2 6.2v-82.9l-41.2-5.7zm-3.1-419.6l-415.5 144.7v-124.1h-88.6v154l-156.5 56.1-126.7 289.4c348.1-6.2 657.6-215.8 787.3-520.1z"/>
			</g>
		</g>
	</g>
</svg>